<svg id="Capa_1" data-name="Capa 1" xmlns="http://www.w3.org/2000/svg" viewBox="0 0 512 512"><defs><style>.cls-1{fill:#444444;}</style></defs><title>account</title><path class="cls-1" d="M432,452a20,20,0,0,0,20-20V20A20,20,0,0,0,432,0H20A20,20,0,0,0,0,20V432a20,20,0,0,0,20,20ZM40,40H412V412h-6.36c-7.4-66.9-51.45-122.9-111.57-147.43a100.38,100.38,0,1,0-136.14,0C97.81,289.1,53.76,345.1,46.36,412H40ZM165.62,190.87A60.38,60.38,0,1,1,226,251.25,60.44,60.44,0,0,1,165.62,190.87ZM86.67,412C96.4,343.83,155.18,291.25,226,291.25S355.6,343.83,365.33,412ZM512,96V492a20,20,0,0,1-20,20H96a20,20,0,0,1,0-40H472V96a20,20,0,0,1,40,0Z"/></svg>