<?xml version="1.0" encoding="iso-8859-1"?>
<!-- Generator: Adobe Illustrator 18.1.1, SVG Export Plug-In . SVG Version: 6.00 Build 0)  -->
<svg version="1.1" id="Capa_1" xmlns="http://www.w3.org/2000/svg" xmlns:xlink="http://www.w3.org/1999/xlink" x="0px" y="0px"
	 viewBox="0 0 46.241 46.241" style="enable-background:new 0 0 46.241 46.241;" xml:space="preserve">
<g>
	<g>
		<path style="fill:#444444;" d="M20.005,0H2.339C1.047,0,0.001,1.047,0.001,2.337v17.667c0,1.291,1.047,2.337,2.338,2.337h17.666
			c1.291,0,2.338-1.047,2.338-2.337V2.337C22.342,1.047,21.296,0,20.005,0z M17.667,17.667H4.674V4.675h12.992V17.667z"/>
		<path style="fill:#444444;" d="M43.904,0H26.236c-1.291,0-2.338,1.047-2.338,2.337v17.667c0,1.291,1.047,2.337,2.338,2.337h17.668
			c1.291,0,2.336-1.047,2.336-2.337V2.337C46.24,1.047,45.195,0,43.904,0z M41.567,17.667H28.575V4.675h12.992V17.667z"/>
		<path style="fill:#444444;" d="M20.005,23.9H2.339c-1.291,0-2.338,1.047-2.338,2.337v17.667c0,1.291,1.047,2.337,2.338,2.337
			h17.666c1.291,0,2.338-1.047,2.338-2.337V26.237C22.342,24.947,21.296,23.9,20.005,23.9z M17.667,41.567H4.674V28.574h12.992
			V41.567z"/>
		<path style="fill:#444444;" d="M43.904,23.9H26.236c-1.291,0-2.338,1.047-2.338,2.337v17.667c0,1.291,1.047,2.337,2.338,2.337
			h17.668c1.291,0,2.336-1.047,2.336-2.337V26.237C46.24,24.947,45.195,23.9,43.904,23.9z M41.567,41.567H28.575V28.574h12.992
			V41.567z"/>
	</g>
</g>
<g>
</g>
<g>
</g>
<g>
</g>
<g>
</g>
<g>
</g>
<g>
</g>
<g>
</g>
<g>
</g>
<g>
</g>
<g>
</g>
<g>
</g>
<g>
</g>
<g>
</g>
<g>
</g>
<g>
</g>
</svg>
